<?xml version="1.0" encoding="iso-8859-1"?>
<!-- Uploaded to: SVG Repo, www.svgrepo.com, Generator: SVG Repo Mixer Tools -->
<svg fill="#000000" height="35px" width="35px" version="1.1" id="Layer_1" xmlns="http://www.w3.org/2000/svg" xmlns:xlink="http://www.w3.org/1999/xlink"
	 viewBox="0 0 512 512" xml:space="preserve">
<g>
	<g>
		<path d="M361.336,193.369h-49.52c-37.736,0-69.03,28.049-74.166,64.391c-17.835,4.966-30.965,21.344-30.965,40.74v19.032h-9.716
			c-6.674,0-12.084,5.411-12.084,12.084c0,6.673,5.41,12.084,12.084,12.084h9.716v102.605c0,23.321,18.973,42.294,42.294,42.294
			c23.321,0,42.294-18.973,42.294-42.294V341.7h3.13c6.674,0,12.084-5.411,12.084-12.084c0-6.673-5.41-12.084-12.084-12.084h-3.13
			V298.5c0-11.295-4.403-21.917-12.397-29.908c-4.796-4.797-10.546-8.288-16.816-10.321c4.664-23.203,25.199-40.734,49.755-40.734
			h49.52c6.674,0,12.084-5.411,12.084-12.084S368.01,193.369,361.336,193.369z M267.105,444.305c0,9.995-8.131,18.126-18.126,18.126
			s-18.126-8.131-18.126-18.126V341.7h36.252V444.305z M267.105,298.5v19.032h-36.252V298.5c0-9.995,8.131-18.126,18.126-18.126
			c4.837,0,9.386,1.885,12.809,5.308C265.216,289.11,267.105,293.662,267.105,298.5z"/>
	</g>
</g>
<g>
	<g>
		<path d="M399.401,193.369h-2.417c-6.674,0-12.084,5.411-12.084,12.084c0,6.673,5.41,12.084,12.084,12.084h2.417
			c6.674,0,12.084-5.411,12.084-12.084C411.485,198.78,406.075,193.369,399.401,193.369z"/>
	</g>
</g>
<g>
	<g>
		<path d="M443.532,70.318V52.191c0-14.773-12.024-26.79-26.802-26.79H81.217c-14.773,0-26.79,12.018-26.79,26.79v17.921H12.084
			C5.41,70.112,0,75.523,0,82.195S5.41,94.28,12.084,94.28h42.342v17.909c0,14.778,12.018,26.802,26.79,26.802H416.73
			c14.779,0,26.802-12.024,26.802-26.802V94.559c24.863,2.628,44.3,23.717,44.3,49.265c0,13.23-5.155,25.671-14.514,35.03
			c-9.36,9.359-21.801,14.514-35.03,14.514h-4.423c-6.674,0-12.084,5.411-12.084,12.084c0,6.673,5.41,12.084,12.084,12.084h4.423
			c19.686,0,38.195-7.669,52.12-21.592C504.331,182.02,512,163.509,512,143.824C512,104.944,481.737,73.02,443.532,70.318z
			 M416.73,114.822H81.217c-1.445,0-2.622-1.182-2.622-2.634V52.191c0-1.445,1.177-2.622,2.622-2.622H416.73
			c1.453,0,2.634,1.177,2.634,2.622v59.997h0C419.364,113.641,418.182,114.822,416.73,114.822z"/>
	</g>
</g>
</svg>