<svg width="72" height="52" viewBox="0 0 72 52" fill="none" xmlns="http://www.w3.org/2000/svg">
<path d="M16.7031 28.0273L14.1953 47H6.70703L3.85938 28.0273H9.0625C9.66406 33.2539 10.0938 37.6719 10.3516 41.2812C10.6094 37.6328 10.8789 34.3906 11.1602 31.5547L11.5 28.0273H16.7031ZM32.2422 33.7695H27.6602V32.3633C27.6602 31.707 27.6016 31.2891 27.4844 31.1094C27.3672 30.9297 27.1719 30.8398 26.8984 30.8398C26.6016 30.8398 26.375 30.9609 26.2188 31.2031C26.0703 31.4453 25.9961 31.8125 25.9961 32.3047C25.9961 32.9375 26.082 33.4141 26.2539 33.7344C26.418 34.0547 26.8828 34.4414 27.6484 34.8945C29.8438 36.1992 31.2266 37.2695 31.7969 38.1055C32.3672 38.9414 32.6523 40.2891 32.6523 42.1484C32.6523 43.5 32.4922 44.4961 32.1719 45.1367C31.8594 45.7773 31.25 46.3164 30.3438 46.7539C29.4375 47.1836 28.3828 47.3984 27.1797 47.3984C25.8594 47.3984 24.7305 47.1484 23.793 46.6484C22.8633 46.1484 22.2539 45.5117 21.9648 44.7383C21.6758 43.9648 21.5312 42.8672 21.5312 41.4453V40.2031H26.1133V42.5117C26.1133 43.2227 26.1758 43.6797 26.3008 43.8828C26.4336 44.0859 26.6641 44.1875 26.9922 44.1875C27.3203 44.1875 27.5625 44.0586 27.7188 43.8008C27.8828 43.543 27.9648 43.1602 27.9648 42.6523C27.9648 41.5352 27.8125 40.8047 27.5078 40.4609C27.1953 40.1172 26.4258 39.543 25.1992 38.7383C23.9727 37.9258 23.1602 37.3359 22.7617 36.9688C22.3633 36.6016 22.0312 36.0938 21.7656 35.4453C21.5078 34.7969 21.3789 33.9688 21.3789 32.9609C21.3789 31.5078 21.5625 30.4453 21.9297 29.7734C22.3047 29.1016 22.9062 28.5781 23.7344 28.2031C24.5625 27.8203 25.5625 27.6289 26.7344 27.6289C28.0156 27.6289 29.1055 27.8359 30.0039 28.25C30.9102 28.6641 31.5078 29.1875 31.7969 29.8203C32.0938 30.4453 32.2422 31.5117 32.2422 33.0195V33.7695Z" fill="white"/>
<path d="M38.4531 28.0273H43.4219C44.7656 28.0273 45.7969 28.1328 46.5156 28.3438C47.2422 28.5547 47.7852 28.8594 48.1445 29.2578C48.5117 29.6562 48.7578 30.1406 48.8828 30.7109C49.0156 31.2734 49.082 32.1484 49.082 33.3359V34.9883C49.082 36.1992 48.957 37.082 48.707 37.6367C48.457 38.1914 47.9961 38.6172 47.3242 38.9141C46.6602 39.2109 45.7891 39.3594 44.7109 39.3594H43.3867V47H38.4531V28.0273ZM43.3867 31.2734V36.1016C43.5273 36.1094 43.6484 36.1133 43.75 36.1133C44.2031 36.1133 44.5156 36.0039 44.6875 35.7852C44.8672 35.5586 44.957 35.0938 44.957 34.3906V32.832C44.957 32.1836 44.8555 31.7617 44.6523 31.5664C44.4492 31.3711 44.0273 31.2734 43.3867 31.2734ZM54.7422 28.0273H59.6641C61.2188 28.0273 62.3945 28.1484 63.1914 28.3906C63.9961 28.6328 64.6445 29.125 65.1367 29.8672C65.6289 30.6016 65.875 31.7891 65.875 33.4297C65.875 34.5391 65.6992 35.3125 65.3477 35.75C65.0039 36.1875 64.3203 36.5234 63.2969 36.7578C64.4375 37.0156 65.2109 37.4453 65.6172 38.0469C66.0234 38.6406 66.2266 39.5547 66.2266 40.7891V42.5469C66.2266 43.8281 66.0781 44.7773 65.7812 45.3945C65.4922 46.0117 65.0273 46.4336 64.3867 46.6602C63.7461 46.8867 62.4336 47 60.4492 47H54.7422V28.0273ZM59.6758 31.2734V35.4922C59.8867 35.4844 60.0508 35.4805 60.168 35.4805C60.6523 35.4805 60.9609 35.3633 61.0938 35.1289C61.2266 34.8867 61.293 34.2031 61.293 33.0781C61.293 32.4844 61.2383 32.0703 61.1289 31.8359C61.0195 31.5938 60.875 31.4414 60.6953 31.3789C60.5234 31.3164 60.1836 31.2812 59.6758 31.2734ZM59.6758 38.4453V43.7539C60.3711 43.7305 60.8125 43.6211 61 43.4258C61.1953 43.2305 61.293 42.75 61.293 41.9844V40.2148C61.293 39.4023 61.207 38.9102 61.0352 38.7383C60.8633 38.5664 60.4102 38.4688 59.6758 38.4453Z" fill="#FF9900"/>
<path d="M71 23L36 2L1 23" stroke="white" stroke-width="2"/>
</svg>
