<svg width="145" height="85" viewBox="0 0 145 85" fill="none" xmlns="http://www.w3.org/2000/svg">
<path d="M41.452 44.3816L37.2425 76.2285H24.6729L19.8929 44.3816H28.6267C29.6364 53.1547 30.3577 60.5706 30.7905 66.6292C31.2232 60.505 31.6756 55.0628 32.1477 50.3025L32.7182 44.3816H41.452ZM67.5354 54.0202H59.8442V51.6597C59.8442 50.5582 59.7458 49.8566 59.5491 49.555C59.3524 49.2533 59.0246 49.1025 58.5656 49.1025C58.0672 49.1025 57.6869 49.3058 57.4247 49.7123C57.1755 50.1189 57.0509 50.7352 57.0509 51.5614C57.0509 52.6236 57.1952 53.4235 57.4837 53.9612C57.7591 54.4989 58.5393 55.148 59.8245 55.9086C63.5095 58.0986 65.8306 59.8952 66.7879 61.2984C67.7453 62.7016 68.2239 64.9637 68.2239 68.0848C68.2239 70.3535 67.9551 72.0255 67.4174 73.1009C66.8929 74.1762 65.87 75.0811 64.3488 75.8154C62.8276 76.5367 61.0572 76.8973 59.0377 76.8973C56.8214 76.8973 54.9265 76.4777 53.3528 75.6384C51.7923 74.7991 50.7694 73.7303 50.2842 72.4321C49.799 71.1338 49.5564 69.2913 49.5564 66.9046V64.8195H57.2476V68.6946C57.2476 69.888 57.3525 70.6551 57.5624 70.9961C57.7853 71.3371 58.1722 71.5075 58.7229 71.5075C59.2737 71.5075 59.6802 71.2912 59.9425 70.8584C60.2179 70.4256 60.3556 69.7831 60.3556 68.9307C60.3556 67.0554 60.0999 65.8292 59.5884 65.2522C59.0639 64.6752 57.7722 63.7114 55.7133 62.3606C53.6544 60.9968 52.2906 60.0067 51.6218 59.3903C50.953 58.774 50.3956 57.9216 49.9498 56.8331C49.517 55.7447 49.3006 54.3546 49.3006 52.6629C49.3006 50.2238 49.6088 48.4403 50.2252 47.3125C50.8546 46.1847 51.8644 45.3061 53.2545 44.6766C54.6445 44.034 56.3231 43.7128 58.2902 43.7128C60.4408 43.7128 62.2702 44.0603 63.7783 44.7553C65.2995 45.4503 66.3027 46.329 66.7879 47.3912C67.2863 48.4403 67.5354 50.2303 67.5354 52.7613V54.0202Z" fill="white"/>
<path d="M77.9609 44.3816H86.3013C88.5569 44.3816 90.2879 44.5586 91.4944 44.9127C92.714 45.2667 93.6254 45.7782 94.2287 46.447C94.845 47.1158 95.2581 47.9289 95.4679 48.8862C95.6908 49.8304 95.8023 51.2991 95.8023 53.2924V56.066C95.8023 58.0986 95.5925 59.5805 95.1729 60.5116C94.7532 61.4427 93.9795 62.1574 92.8517 62.6557C91.737 63.154 90.2748 63.4032 88.4651 63.4032H86.2423V76.2285H77.9609V44.3816ZM86.2423 49.8304V57.9347C86.4784 57.9478 86.6816 57.9544 86.8521 57.9544C87.6127 57.9544 88.1373 57.7708 88.4258 57.4036C88.7274 57.0233 88.8782 56.243 88.8782 55.0628V52.4466C88.8782 51.3581 88.7077 50.65 88.3668 50.3221C88.0258 49.9943 87.3177 49.8304 86.2423 49.8304ZM105.303 44.3816H113.565C116.175 44.3816 118.148 44.5848 119.486 44.9914C120.837 45.3979 121.925 46.2241 122.751 47.4699C123.577 48.7026 123.991 50.6959 123.991 53.4498C123.991 55.3119 123.695 56.6102 123.105 57.3446C122.528 58.079 121.381 58.6429 119.663 59.0363C121.578 59.469 122.876 60.1903 123.558 61.2001C124.24 62.1967 124.581 63.731 124.581 65.803V68.7536C124.581 70.9043 124.331 72.4976 123.833 73.5336C123.348 74.5696 122.568 75.2778 121.492 75.6581C120.417 76.0384 118.214 76.2285 114.883 76.2285H105.303V44.3816ZM113.585 49.8304V56.9118C113.939 56.8987 114.214 56.8922 114.411 56.8922C115.224 56.8922 115.742 56.6955 115.965 56.302C116.188 55.8955 116.299 54.748 116.299 52.8597C116.299 51.863 116.207 51.168 116.024 50.7746C115.84 50.368 115.598 50.1123 115.296 50.0074C115.008 49.9025 114.437 49.8435 113.585 49.8304ZM113.585 61.8689V70.7797C114.752 70.7404 115.493 70.5568 115.807 70.2289C116.135 69.9011 116.299 69.0946 116.299 67.8094V64.8391C116.299 63.4753 116.155 62.6491 115.866 62.3606C115.578 62.0721 114.817 61.9082 113.585 61.8689Z" fill="#FF9900"/>
<path d="M143 45.3L72.5 3L2 45.3" stroke="white" stroke-width="4.02857"/>
</svg>
